<svg xmlns="http://www.w3.org/2000/svg" viewBox="0 0 512 512" role="img" aria-labelledby="title desc">
  <title id="title">EHS app icon</title>
  <desc id="desc">White EHS monogram on an EHS Forest square.</desc>
  <rect width="512" height="512" rx="104" fill="#176B45"/>
  <g fill="none" stroke="#FFFFFF" stroke-width="35" stroke-linecap="round" stroke-linejoin="round">
    <path d="M83 256c0-78 49-124 112-124 44 0 75 22 88 58H102m0 65h170c-13 80-70 124-132 124-36 0-57-18-57-48z"/>
    <path d="M256 118v276M256 256h83"/>
    <path d="M430 177c-19-31-50-46-86-46-45 0-74 23-74 58 0 41 37 51 80 62 48 12 92 31 92 81 0 43-38 68-91 68-46 0-83-20-104-55"/>
  </g>
</svg>
